<?xml version="1.0" standalone="no"?>
<!DOCTYPE svg PUBLIC "-//W3C//DTD SVG 1.1//EN" "http://www.w3.org/Graphics/SVG/1.1/DTD/svg11.dtd">
<svg class="icon" style="width: 1em;height: 1em;vertical-align: middle;fill: currentColor; overflow: hidden;" viewBox="0 0 1024 1024" version="1.1" xmlns="http://www.w3.org/2000/svg"><path d="M905.465 279.008l-160.29-160.407 82.908-82.966c27.63-27.647 71.856-27.647 93.96 0l66.33 66.38c27.64 27.655 27.64 71.905 0 94.035l-82.908 82.958zM441.188 743.617L280.897 583.21 717.535 151.8l160.291 160.39-436.638 431.427zM153.78 876.36l99.486-259.96 160.291 160.398L153.78 876.36z m816.607 55.31c22.12 0 38.707 16.587 38.707 38.708 0 22.13-16.586 38.725-38.707 38.725H53.613c-24.233 0-38.716-16.595-38.716-38.725 0-22.12 16.587-38.707 38.716-38.707h916.774z m-0.365 0" /></svg>