<?xml version="1.0" standalone="no"?>
<!DOCTYPE svg PUBLIC "-//W3C//DTD SVG 1.1//EN" "http://www.w3.org/Graphics/SVG/1.1/DTD/svg11.dtd">
<svg class="icon" style="width: 1.06640625em;height: 1em;vertical-align: middle;fill: currentColor;overflow: hidden;" viewBox="0 0 1092 1024" version="1.1" xmlns="http://www.w3.org/2000/svg"><path d="M921.6 1024H160.427C71.68 1024 0 952.32 0 863.573V160.427C0 71.68 71.68 0 160.427 0h610.986c20.48 0 34.134 13.653 34.134 34.133s-13.654 34.134-34.134 34.134H160.427c-51.2 0-92.16 40.96-92.16 92.16V860.16c0 54.613 40.96 95.573 92.16 95.573H921.6c51.2 0 92.16-40.96 92.16-92.16V337.92c0-20.48 13.653-34.133 34.133-34.133s34.134 13.653 34.134 34.133v525.653C1085.44 952.32 1010.347 1024 921.6 1024z"  /><path d="M453.973 658.773c-10.24 0-17.066-3.413-23.893-10.24-13.653-13.653-13.653-34.133 0-47.786l604.16-576.854c13.653-13.653 34.133-13.653 47.787 0 13.653 13.654 13.653 34.134 0 47.787l-604.16 576.853c-6.827 6.827-13.654 10.24-23.894 10.24z"  /></svg>