<?xml version="1.0" standalone="no"?>
<!DOCTYPE svg PUBLIC "-//W3C//DTD SVG 1.1//EN" "http://www.w3.org/Graphics/SVG/1.1/DTD/svg11.dtd">
<svg class="icon" style="width: 1.025390625em;height: 1em;vertical-align: middle;fill: currentColor;overflow: hidden;" viewBox="0 0 1050 1024" version="1.1" xmlns="http://www.w3.org/2000/svg"><path d="M983.88970074 200.49502787c-27.51888099 0-48.6872528 21.16837023-48.6872528 48.68725124 0 14.81785947 6.35051077 29.63571897 19.05153382 38.10306768-40.21990407 63.50511229-112.19236351 105.84185277-194.74900962 105.84185275-97.37450404 0-179.93115015-59.27143792-213.80054191-143.94492043 19.05153383-6.35051077 33.86939333-25.40204459 33.86939331-46.57041485 0-27.51888099-21.16837023-48.6872528-48.6872528-48.68725281s-48.6872528 21.16837023-48.68725278 48.68725281c0 21.16837023 14.81785947 40.21990407 35.9862297 46.57041485-33.86939333 84.67348253-116.42603788 143.94492044-213.8005419 143.94492043-82.55664454 0-152.41226759-42.33674048-194.74900964-105.84185275 10.58418512-8.46734871 19.05153383-23.28520821 19.05153384-38.10306768 0-27.51888099-21.16837023-48.6872528-48.68725282-48.68725124s-48.6872528 21.16837023-48.68725122 48.68725124 21.16837023 48.6872528 48.68725122 48.68725278c6.35051077 0 12.70102309-2.11683641 16.93469747-4.23367435l122.77654863 537.67661251c2.11683641 21.16837023 21.16837023 38.10306768 44.45357844 38.10306768h537.67661251c21.16837023 0 40.21990407-14.81785947 44.45357843-35.98623128l122.77654864-539.79344891c6.35051077 2.11683641 10.58418512 4.23367436 16.93469745 4.23367435 27.51888099 0 48.6872528-21.16837023 48.68725123-48.68725278s-23.28520821-48.6872528-50.8040892-48.68725124z" /></svg>