<?xml version="1.0" standalone="no"?>
<!DOCTYPE svg PUBLIC "-//W3C//DTD SVG 1.1//EN" "http://www.w3.org/Graphics/SVG/1.1/DTD/svg11.dtd">
<svg class="icon" style="width: 1em;height: 1em;vertical-align: middle;fill: currentColor;overflow: hidden;" viewBox="0 0 1024 1024" version="1.1" xmlns="http://www.w3.org/2000/svg"><path d="M506.129067 235.793067C305.288533 235.793067 142.404267 401.271467 142.404267 605.3888c0 204.117333 162.884267 369.595733 363.7248 369.595733 200.977067 0 363.861333-165.546667 363.861333-369.595733 0-204.253867-162.884267-369.595733-363.861333-369.595733m0 46.967466c174.762667 0 316.8256 144.725333 316.8256 322.628267 0 177.834667-142.1312 322.56-316.757334 322.56-174.6944 0-316.757333-144.725333-316.757333-322.56 0-177.902933 142.062933-322.628267 316.757333-322.628267" fill="#999999" /><path d="M505.992533 391.304533c-9.762133 0-19.524267 7.850667-26.897066 23.210667l-44.373334 91.204267-99.1232 14.677333c-33.928533 5.051733-40.686933 28.194133-16.657066 52.0192l71.816533 70.997333-16.930133 100.352c-4.096 24.849067 4.778667 38.843733 21.230933 38.843734a48.7424 48.7424 0 0 0 22.391467-6.621867l88.541866-47.377067 88.746667 47.377067a48.674133 48.674133 0 0 0 22.254933 6.621867c16.657067 0 25.463467-14.404267 21.2992-38.775467l-16.930133-100.352 71.816533-71.0656c24.576-24.439467 16.520533-47.240533-16.7936-52.0192l-99.1232-14.677333-44.373333-91.204267c-7.509333-15.5648-17.2032-23.210667-26.897067-23.210667m0 75.298134l29.013334 59.733333 10.922666 22.254933 24.507734 3.6864 66.3552 9.762134-48.469334 47.991466-17.339733 17.134934 4.096 24.098133 11.264 66.9696-58.1632-31.061333-22.186667-11.810134-22.1184 11.810134-58.026666 31.061333 11.264-66.9696 4.096-24.098133-17.408-17.066667-48.469334-48.059733 66.218667-9.762134 24.576-3.6864 10.922667-22.254933 28.945066-59.733333" fill="#999999" /><path d="M846.165333 27.989333H621.226667a25.941333 25.941333 0 0 0-24.7808 20.0704L527.1552 186.845867s148.48 9.147733 236.202667 94.958933L866.850133 69.563733a26.0096 26.0096 0 0 0-20.6848-41.642666m-34.269866 47.104l-65.399467 134.007466c-50.312533-32.085333-106.154667-49.493333-148.548267-58.709333L635.4944 74.9568h176.401067" fill="#999999" /><path d="M387.208533 27.989333H162.474667C148.138667 27.989333 136.533333 39.799467 136.533333 54.272a26.624 26.624 0 0 0 5.256534 15.1552l103.492266 212.309333c87.586133-85.879467 236.066133-94.890667 236.066134-94.890666L412.0576 48.059733A25.736533 25.736533 0 0 0 387.208533 27.989333m-14.267733 47.035734l37.546667 75.229866c-42.325333 9.284267-98.167467 26.624-148.411734 58.709334L196.8128 74.9568h176.128" fill="#999999" /></svg>