<?xml version="1.0" standalone="no"?>
<!DOCTYPE svg PUBLIC "-//W3C//DTD SVG 1.1//EN" "http://www.w3.org/Graphics/SVG/1.1/DTD/svg11.dtd">
<svg class="icon" style="width: 1.1630859375em;height: 1em;vertical-align: middle;fill: currentColor;overflow: hidden;" viewBox="0 0 1191 1024" version="1.1" xmlns="http://www.w3.org/2000/svg"><path d="M160.803273 106.196859C165.812219 44.124526 231.980508 0 308.667684 0h199.733855c76.649177 0 142.855465 44.124526 147.863411 106.196859h395.818748c77.022173 0 139.467502 62.593328 139.467502 139.821498v638.149145c0 77.22817-62.445329 139.821498-139.448502 139.821498H139.448502C62.444329 1023.989 0 961.395673 0 884.167502V246.018357c0-77.22817 62.444329-139.821498 139.448502-139.821498h21.354771z m69.073258 0H587.173692c-6.609929-19.455791-37.794594-37.924593-78.772153-37.924592H308.666684c-40.99656 0-72.163225 18.469802-78.773154 37.924592z m-90.428029 68.253267a71.456232 71.456232 0 0 0-71.362233 71.568231v638.149145a71.456232 71.456232 0 0 0 71.362233 71.549232h912.653196a71.456232 71.456232 0 0 0 71.363234-71.549232V246.018357a71.456232 71.456232 0 0 0-71.363234-71.568231H139.448502z m469.694954 690.242585c-159.072291 0-288.150905-128.108624-288.150904-286.343924 0-158.196301 129.078613-286.325924 288.150904-286.325924s288.168904 128.128624 288.168905 286.344924c0 158.2153-129.097613 286.343924-288.168905 286.343924z m0-68.252267c121.630693 0 220.064636-97.70795 220.064636-218.072657 0-120.365707-98.433943-218.072657-220.064636-218.072657-121.612694 0-220.064636 97.70695-220.064636 218.072657 0 120.364707 98.451942 218.072657 220.064636 218.072657zM989.732368 383.045885a68.179268 68.179268 0 0 1-68.086268-68.271266 68.179268 68.179268 0 0 1 68.086268-68.254267 68.179268 68.179268 0 0 1 68.085269 68.254267 68.179268 68.179268 0 0 1-68.085269 68.271266z" /></svg>