<?xml version="1.0" standalone="no"?>
<!DOCTYPE svg PUBLIC "-//W3C//DTD SVG 1.1//EN" "http://www.w3.org/Graphics/SVG/1.1/DTD/svg11.dtd">
<svg class="icon" style="width: 1em;height: 1em;vertical-align: middle;fill: currentColor;overflow: hidden;" viewBox="0 0 1024 1024" version="1.1" xmlns="http://www.w3.org/2000/svg"><path d="M512 0A512 512 0 0 0 0 512a512 512 0 0 0 512 512 512 512 0 0 0 512-512A512 512 0 0 0 512 0z"  /><path d="M717.166 306.176a35.986 35.986 0 0 0-50.835 0.146L512 461.02 357.669 306.322a35.986 35.986 0 0 0-50.981 50.761L461.166 512 306.688 666.917a35.986 35.986 0 0 0 50.98 50.76L512 562.982l154.331 154.843a35.694 35.694 0 0 0 50.835 0.073 35.986 35.986 0 0 0 0.146-50.907L562.834 512l154.332-154.917a35.913 35.913 0 0 0 0-50.907z" fill="#FFFFFF" /></svg>