<?xml version="1.0" standalone="no"?>
<!DOCTYPE svg PUBLIC "-//W3C//DTD SVG 1.1//EN" "http://www.w3.org/Graphics/SVG/1.1/DTD/svg11.dtd">
<svg class="icon" style="width: 1em;height: 1em;vertical-align: middle;fill: currentColor;overflow: hidden;" viewBox="0 0 1024 1024" version="1.1" xmlns="http://www.w3.org/2000/svg"><path d="M768 384c-19.2 0-32 12.8-32 32v377.6c0 25.6-19.2 38.4-38.4 38.4H326.4c-25.6 0-38.4-19.2-38.4-38.4V416c0-19.2-12.8-32-32-32s-32 12.8-32 32v377.6c0 57.6 44.8 102.4 102.4 102.4h364.8c57.6 0 102.4-44.8 102.4-102.4V416c6.4-19.2-6.4-32-25.6-32z"  /><path d="M460.8 736V416c0-19.2-12.8-32-25.6-32s-38.4 12.8-38.4 32v320c0 19.2 12.8 32 32 32s32-12.8 32-32zM627.2 736V416c0-19.2-19.2-32-38.4-32s-25.6 12.8-25.6 32v320c0 19.2 12.8 32 25.6 32s38.4-12.8 38.4-32zM832 256H672v-44.8c0-44.8-38.4-83.2-83.2-83.2H435.2c-44.8 0-83.2 38.4-83.2 83.2V256H192c-19.2 0-32 12.8-32 32s12.8 32 32 32h640c19.2 0 32-12.8 32-32s-12.8-32-32-32z m-416-44.8c0-12.8 6.4-19.2 19.2-19.2h153.6c12.8 0 19.2 6.4 19.2 19.2V256H416v-44.8z"  /></svg>