<?xml version="1.0" standalone="no"?>
<!DOCTYPE svg PUBLIC "-//W3C//DTD SVG 1.1//EN" "http://www.w3.org/Graphics/SVG/1.1/DTD/svg11.dtd">
<svg class="icon" style="width: 1em;height: 1em;vertical-align: middle;fill: currentColor;overflow: hidden;" viewBox="0 0 1024 1024" version="1.1" xmlns="http://www.w3.org/2000/svg"><path d="M238.036 170.535c-47.958 0-87.173 38.97-87.173 87.172v525.326c0 47.96 39.215 86.928 87.173 86.928h525.57c47.96 0 86.929-38.969 86.929-86.928V437.808l90.185-87.172v464.366c0 80.182-67.95 145.132-148.133 145.132h-586.52c-80.182 0-145.132-64.95-145.132-145.132V234.728c0-80.182 64.95-154.121 145.133-154.121h464.365l-86.927 89.929h-345.47z m321.489 426.896L364.69 652.634l55.704-193.591 139.13 138.388z m19.492-19.479L439.628 439.81l306.245-304.242 139.388 138.13-306.244 304.255zM948.208 211.25l-41.715 41.47L767.108 114.33l41.714-41.47c15.49-15.235 39.714-15.99 53.959-1.744l87.173 86.428c14.244 14.234 13.488 38.47-1.746 53.704z" /></svg>