<?xml version="1.0" standalone="no"?>
<!DOCTYPE svg PUBLIC "-//W3C//DTD SVG 1.1//EN" "http://www.w3.org/Graphics/SVG/1.1/DTD/svg11.dtd">
<svg class="icon" style="width: 1em;height: 1em;vertical-align: middle;fill: currentColor;overflow: hidden;" viewBox="0 0 1024 1024" version="1.1" xmlns="http://www.w3.org/2000/svg"><path d="M614.4 409.6h102.4V307.2H614.4v102.4z m-307.2 0h102.4V307.2H307.2v102.4z m440.32 204.8C706.56 706.56 619.52 768 512 768s-194.56-61.44-235.52-153.6h-56.32C261.12 732.16 373.76 819.2 512 819.2s245.76-87.04 291.84-204.8h-56.32zM512 0C230.4 0 0 230.4 0 512s230.4 512 512 512 512-230.4 512-512S793.6 0 512 0z m0 51.2C768 51.2 972.8 256 972.8 512S768 972.8 512 972.8 51.2 768 51.2 512 256 51.2 512 51.2z" /></svg>