<?xml version="1.0" standalone="no"?>
<!DOCTYPE svg PUBLIC "-//W3C//DTD SVG 1.1//EN" "http://www.w3.org/Graphics/SVG/1.1/DTD/svg11.dtd">
<svg class="icon" style="width: 1em;height: 1em;vertical-align: middle;fill: currentColor;overflow: hidden;" viewBox="0 0 1024 1024" version="1.1" xmlns="http://www.w3.org/2000/svg"><path d="M512 0C228.693 0 0 228.693 0 512s228.693 512 512 512 512-228.693 512-512S795.307 0 512 0z m334.507 406.187L655.36 556.373l61.44 225.28c3.413 6.827 0 13.654-6.827 17.067-3.413 3.413-6.826 3.413-10.24 3.413-3.413 0-6.826 0-10.24-3.413L512 686.08 334.507 798.72c-6.827 3.413-13.654 3.413-20.48 0s-6.827-10.24-6.827-17.067l54.613-225.28-184.32-150.186c-6.826-3.414-6.826-13.654-6.826-20.48s10.24-10.24 17.066-10.24h228.694l81.92-194.56c6.826-13.654 27.306-13.654 30.72 0l81.92 194.56H839.68c6.827 0 13.653 3.413 17.067 10.24-3.414 6.826-3.414 17.066-10.24 20.48z" /></svg>