<?xml version="1.0" standalone="no"?>
<!DOCTYPE svg PUBLIC "-//W3C//DTD SVG 1.1//EN" "http://www.w3.org/Graphics/SVG/1.1/DTD/svg11.dtd">
<svg class="icon" style="width: 1em;height: 1em;vertical-align: middle;fill: currentColor;overflow: hidden;" viewBox="0 0 1024 1024" version="1.1" xmlns="http://www.w3.org/2000/svg"><path d="M229.12 563.2v301.696h178.56V711.68c0-32.896 26.624-59.52 59.52-59.52h90.368c32.896 0 59.52 26.624 59.52 59.52v153.088h178.56V563.2L512.256 262.016 229.12 563.2z"  /><path d="M555.776 160.896C544 149.12 528.384 142.72 511.744 142.72c-16.64 0-32.256 6.528-44.544 18.816L77.184 575.36h72.832L505.344 198.4c2.304-2.304 5.12-2.688 6.528-2.688 1.408 0 4.096 0.384 6.016 2.176L873.984 575.36h72.832l-391.04-414.464z"  /></svg>