<?xml version="1.0" standalone="no"?>
<!DOCTYPE svg PUBLIC "-//W3C//DTD SVG 1.1//EN" "http://www.w3.org/Graphics/SVG/1.1/DTD/svg11.dtd">
<svg class="icon" style="width: 1em;height: 1em;vertical-align: middle;fill: currentColor;overflow: hidden;" viewBox="0 0 1024 1024" version="1.1" xmlns="http://www.w3.org/2000/svg"><path d="M959.872 128l0.128 0.128v767.776l-0.128 0.128H64.096l-0.128-0.128V128.128l0.128-0.128h895.776zM960 64H64C28.8 64 0 92.8 0 128v768c0 35.2 28.8 64 64 64h896c35.2 0 64-28.8 64-64V128c0-35.2-28.8-64-64-64z"  /><path d="M832 288a96 96 0 1 1-192 0 96 96 0 0 1 192 0z m64 544H128V704l224-384 256 320h64l224-192z"  /></svg>