<?xml version="1.0" standalone="no"?>
<!DOCTYPE svg PUBLIC "-//W3C//DTD SVG 1.1//EN" "http://www.w3.org/Graphics/SVG/1.1/DTD/svg11.dtd">
<svg class="icon" style="width: 1em;height: 1em;vertical-align: middle;fill: currentColor;overflow: hidden;" viewBox="0 0 1024 1024" version="1.1" xmlns="http://www.w3.org/2000/svg"><path d="M515.76533333 787.4464c4.65813333 0 9.40053333-0.2848 14.17066667-0.85333333 45.74933333-5.49013333 84.59733333-37.46666667 98.9376-81.53386667 1.08053333-3.2992-0.48213333-6.82666667-3.63413333-8.27733333-3.12426667-1.45066667-6.90133333-0.19946667-8.66133334 2.7584-0.17066667 0.2848-18.3456 29.64373333-89.11253333 39.20213333-10.592 1.42293333-20.90026667 2.1632-30.66986667 2.1632-49.58186667-0.0288-71.67573333-18.72-71.87413333-18.89066667-2.4992-2.21866667-6.304-2.2752-8.85973333-0.11306666-2.58453333 2.16213333-3.1808 5.9168-1.4208 8.79146666 21.58293333 34.99093333 60.3168 56.75306667 101.12426666 56.75306667z" fill="#ff8803" /><path d="M896.26986667 348.8832c-0.62506667 0-1.1936 0.11413333-1.7888 0.11413333-41.46133333-179.5104-199.89333333-313.41866667-389.8464-313.41866666-195.17866667 0-357.2448 141.3056-393.16906667 328.24-34.92906667 6.28693333-61.5104 36.98346667-61.5104 74.1088v148.58773333c0 41.648 33.39733333 75.41653333 74.6304 75.41653333 23.25866667 0 43.78986667-10.98026667 57.4496-27.85066666 32.99626667 87.2768 100.18346667 157.65653333 185.20213333 194.784 0.20373333-0.44373333 1.81333333-3.57226667 3.74826667-6.06506667 1.34186667-1.728 2.83733333-3.1488 4.12586667-3.1488 1.33546667 0 2.5568 0.4832 3.6064 1.22346667-19.68-14.65173333-90.75946667-89.9552-106.1504-195.0432-6.75946667-46.25813333 27.88586667-91.66186667 68.24-99.17226667 64.77546667-12.06293333 129.21066667-25.80266667 193.98613333-37.63733333 41.17653333-7.5104 69.31946667-30.09813333 86.528-67.70666667 4.032-8.79146667 9.85493333-26.57066667 12.5248-52.20266667 0.70933333-3.81226667 3.83253333-6.74346667 7.83786667-6.74346666 2.66986667 0 4.94186667 1.36533333 6.44693333 3.328l1.7888-1.10933334c25.5296 37.0688 76.1632 119.1424 83.43253333 205.6832 8.34986667 98.944 3.69173333 166.70933333-72.0448 236.0384-0.08533333 0.08533333-0.1984 0.1984-0.31253333 0.2848a6.20906667 6.20906667 0 0 0-1.67466667 4.23893334c0 2.13333333 1.136 3.95413333 2.78293334 5.06346666 0.624 0.256 1.25013333 0.59733333 1.87413333 0.85333334 0.51093333 0.11306667 0.99306667 0.2848 1.50506667 0.2848s0.9664-0.17066667 1.41973333-0.2848c1.08053333-0.56853333 2.10133333-1.22346667 3.15306667-1.792 76.5888-42.18986667 135.344-112.65706667 162.49173333-197.4048 10.98986667 16.32853333 28.1984 28.07786667 48.192 32.17493333-32.06186667 145.8272-162.12373333 237.09013333-323.25333333 250.944-9.65653333-23.95306667-33.42506667-40.96533333-61.3408-40.96533333-36.46186667 0-66.02453333 28.87466667-66.02453334 64.46506666s29.5616 64.4352 66.02453334 64.4352c29.392 0 54.01386667-18.8896 62.56106666-44.83413333 186.51733333-15.16373333 336.032-126.02666667 367.24266667-298.28266667 27.57333333-11.5232 46.9408-38.57706667 46.9408-70.15466666V424.9824c-0.00213333-42.01813333-34.30826667-76.10026667-76.61973333-76.10026667z m-68.80853334 43.18506667c-48.64533333-131.7728-174.704-225.90933333-322.99733333-225.90933334-147.66933333 0-273.27253333 93.33973333-322.37226667 224.2592-2.44266667-2.98666667-5.31093333-5.54666667-8.12266666-8.13653333 27.8016-159.5392 165.10613333-280.84373333 330.6656-280.84373333 164.7648 0 301.64266667 120.1088 330.352 278.53973333-2.83946667 3.81226667-5.4528 7.79626667-7.52533334 12.09066667z" fill="#ff8803" /><path d="M367.2448 828.86826667l-0.00853333-0.0032c-0.03093333 0.06826667-0.032 0.0768 0.00853333 0.0032z" fill="#ff8803" /></svg>