<?xml version="1.0" standalone="no"?>
<!DOCTYPE svg PUBLIC "-//W3C//DTD SVG 1.1//EN" "http://www.w3.org/Graphics/SVG/1.1/DTD/svg11.dtd">
<svg class="icon" style="width: 1em;height: 1em;vertical-align: middle;fill: currentColor;overflow: hidden;" viewBox="0 0 1024 1024" version="1.1" xmlns="http://www.w3.org/2000/svg"><path d="M765.605 364.064h-42.268v-84.536c0-116.658-94.68-211.337-211.337-211.337s-211.337 94.68-211.337 211.337v84.536h-42.268c-46.706 0-84.535 37.83-84.535 84.535v422.675c0 46.705 37.83 84.535 84.535 84.535h507.21c46.706 0 84.535-37.83 84.535-84.535V448.599c0-46.706-37.83-84.535-84.535-84.535zM512 744.47c-46.706 0-84.535-37.83-84.535-84.536 0-46.705 37.83-84.535 84.535-84.535s84.535 37.83 84.535 84.535c0 46.707-37.83 84.536-84.535 84.536z m131.03-380.407H380.97v-84.536c0-72.277 58.753-131.029 131.03-131.029s131.03 58.752 131.03 131.03v84.535z" /></svg>