<?xml version="1.0" standalone="no"?>
<!DOCTYPE svg PUBLIC "-//W3C//DTD SVG 1.1//EN" "http://www.w3.org/Graphics/SVG/1.1/DTD/svg11.dtd">
<svg class="icon" style="width: 1em;height: 1em;vertical-align: middle;fill: currentColor;overflow: hidden;" viewBox="0 0 1024 1024" version="1.1" xmlns="http://www.w3.org/2000/svg"><path d="M796.785 343.723h-48.079v-96.197A240.512 240.512 0 0 0 508.311 7.13a240.512 240.512 0 0 0-240.396 240.396v96.197h-48.157a96.43 96.43 0 0 0-96.12 96.158v480.792a96.43 96.43 0 0 0 96.159 96.197h576.988a96.43 96.43 0 0 0 96.198-96.158v-480.83a96.43 96.43 0 0 0-96.198-96.159zM508.311 776.474a96.43 96.43 0 0 1-96.159-96.197 96.43 96.43 0 0 1 96.159-96.158 96.43 96.43 0 0 1 96.158 96.158 96.43 96.43 0 0 1-96.158 96.197z m149.053-432.751H359.257v-96.197A149.17 149.17 0 0 1 508.311 98.473a149.17 149.17 0 0 1 149.053 149.053v96.197z" /></svg>