<?xml version="1.0" standalone="no"?>
<!DOCTYPE svg PUBLIC "-//W3C//DTD SVG 1.1//EN" "http://www.w3.org/Graphics/SVG/1.1/DTD/svg11.dtd">
<svg class="icon" style="width: 1em;height: 1em;vertical-align: middle;fill: currentColor;overflow: hidden;" viewBox="0 0 1024 1024" version="1.1" xmlns="http://www.w3.org/2000/svg"><path d="M221.184 418.534c-51.626 0-93.476 41.847-93.476 93.477 0 51.627 41.85 93.457 93.476 93.457 51.607 0 93.457-41.83 93.457-93.457 0-51.63-41.85-93.477-93.457-93.477z m290.817 0c-51.648 0-93.477 41.847-93.477 93.477 0 51.627 41.83 93.457 93.477 93.457 51.607 0 93.476-41.83 93.476-93.457 0-51.63-41.87-93.477-93.476-93.477z m290.814 0c-51.647 0-93.477 41.847-93.477 93.477 0 51.627 41.83 93.457 93.477 93.457 51.628 0 93.477-41.83 93.477-93.457 0-51.63-41.85-93.477-93.477-93.477z" /></svg>