<?xml version="1.0" standalone="no"?>
<!DOCTYPE svg PUBLIC "-//W3C//DTD SVG 1.1//EN" "http://www.w3.org/Graphics/SVG/1.1/DTD/svg11.dtd">
<svg class="icon" style="width: 1em;height: 1em;vertical-align: middle;fill: currentColor;overflow: hidden;" viewBox="0 0 1024 1024" version="1.1" xmlns="http://www.w3.org/2000/svg"><path d="M686.32 188.771h242.375c12.757 0 25.513 8.505 25.513 21.262v591.055c0 17.008-12.756 25.513-25.513 25.513H686.32v-46.774h216.862V235.546H686.32V188.77z m0 471.994h144.575c12.756 0 21.261-8.505 21.261-17.008V350.354c0-8.504-8.505-21.26-21.261-21.26H686.32v42.522h123.314v250.88H686.32v38.27zM329.135 188.771H686.32v46.775H329.135V188.77z m357.185 637.83H329.135v-46.774H686.32V826.6z m0-497.507v42.523H563.007v250.88H686.32v38.27H541.745c-12.756 0-21.26-8.505-21.26-17.01V350.355c0-8.504 8.504-21.26 21.26-21.26H686.32zM329.135 660.765v-38.27h97.8v-25.512c0-4.252-4.251-12.757-12.756-21.262-8.505-4.252-25.513-8.504-38.27-8.504h-46.774V516.19c21.261 0 38.27-8.504 55.28-21.26 12.756-12.757 21.26-34.019 21.26-55.28 0-21.261-8.504-42.522-21.26-55.279-17.01-17.008-34.019-25.513-55.28-25.513v-38.27c34.018 0 63.783 12.757 85.044 34.018 21.261 21.262 34.018 51.026 34.018 85.044 0 34.018-12.757 63.783-34.018 85.044-4.252 0-4.252 4.252-8.505 4.252 12.757 4.252 25.513 8.505 34.018 17.008 17.009 12.757 29.765 29.766 29.765 51.026v63.783H329.136zM91.013 188.771h238.123v46.775h-212.61v544.28h212.61v46.775H91.013c-12.757 0-25.513-8.505-25.513-25.513V210.033c0-12.757 12.756-21.262 25.513-21.262zM329.135 320.59c-34.018 0-63.782 12.756-85.044 34.017-21.261 21.262-38.27 51.026-38.27 85.044 0 34.018 17.009 63.783 38.27 85.044 0 0 0 4.252 4.252 4.252-12.756 4.252-21.261 8.505-29.765 17.008-21.261 12.757-29.765 29.766-29.765 51.026v63.783h140.323v-38.27h-97.8v-25.513c0-4.251 4.252-12.756 12.756-21.26 8.505-4.253 21.262-8.505 34.018-8.505h51.026v-51.027c-21.261 0-42.522-8.504-55.279-21.26-17.008-12.757-25.513-34.019-25.513-55.28 0-21.261 8.505-42.522 25.513-55.279 12.757-17.008 34.018-25.513 55.28-25.513V320.59z" /></svg>