<?xml version="1.0" standalone="no"?>
<!DOCTYPE svg PUBLIC "-//W3C//DTD SVG 1.1//EN" "http://www.w3.org/Graphics/SVG/1.1/DTD/svg11.dtd">
<svg class="icon" style="width: 1.0009765625em;height: 1em;vertical-align: middle;fill: currentColor;overflow: hidden;" viewBox="0 0 1025 1024" version="1.1" xmlns="http://www.w3.org/2000/svg"><path d="M512.708 287.61c-123.99 0-224.503 86.155-224.503 192.428 0 65.21 37.933 122.736 95.817 157.54l-1.01 74.381 75.489-45.374c17.39 3.703 35.48 5.884 54.208 5.884 123.99 0 224.503-86.153 224.503-192.432 0-106.272-100.514-192.428-224.504-192.428z m80.18 272.607h-160.36c-8.857 0-16.036-7.177-16.036-16.035s7.18-16.035 16.036-16.035h160.36c8.855 0 16.035 7.177 16.035 16.035s-7.179 16.035-16.036 16.035z m32.072-96.215H400.457c-8.857 0-16.037-7.18-16.037-16.035 0-8.858 7.18-16.038 16.037-16.038H624.96c8.855 0 16.036 7.18 16.036 16.038 0 8.855-7.18 16.035-16.036 16.035z"  /><path d="M511.685 0.427C229.089 0.427 0 229.517 0 512.112s229.09 511.684 511.685 511.684 511.685-229.09 511.685-511.684S794.28 0.427 511.685 0.427z m1.023 704.113c-16.409 0-32.405-1.484-47.957-4.06l-112.403 68.207V655.138c-58.605-41.145-96.215-104.238-96.215-175.101 0-123.988 114.873-224.501 256.575-224.501s256.575 100.512 256.575 224.501c0 123.991-114.873 224.503-256.575 224.503z"  /></svg>