<?xml version="1.0" standalone="no"?>
<!DOCTYPE svg PUBLIC "-//W3C//DTD SVG 1.1//EN" "http://www.w3.org/Graphics/SVG/1.1/DTD/svg11.dtd">
<svg class="icon" style="width: 1em;height: 1em;vertical-align: middle;fill: currentColor;overflow: hidden;" viewBox="0 0 1024 1024" version="1.1" xmlns="http://www.w3.org/2000/svg"><path d="M512 961C264.4 961 63 759.6 63 512s201.4-449 449-449S961 264.4 961 512 759.6 961 512 961z m0-866.5c-230.2 0-417.5 187.3-417.5 417.5S281.8 929.5 512 929.5 929.5 742.2 929.5 512 742.2 94.5 512 94.5z" fill="#020202" /><path d="M524.6 407.2c68.1 50 147.1 89.5 236.6 118l-19.2 34c-90-30.7-166.3-70.3-230-119.7-58.2 46.1-135 85.6-230.6 119.1l-18.7-34c94.4-31.8 173.5-70.8 236.6-117.5h25.3v0.1z m-225 21.4l-34-21.4c34-41.7 58.7-87.8 74.1-138.3l38.4 8.2c-4.4 14.3-9.3 27.4-14.3 40.6h144.4v35.1h-79c8.8 19.2 16.5 37.3 22 53.8L415 419.8c-7.1-23.1-15.4-45.6-25.3-67H348c-14.4 27.5-30.3 52.7-48.4 75.8z m379.3 166.8c-14.3 45.6-31.8 86.7-52.7 123h118v36.8H280.9v-36.8h303c21.4-37.3 40.1-81.8 56.5-133.4l38.5 10.4z m-258 98.9l-35.7 9.3c-11-35.1-25.3-68.6-42.8-100.5l35.7-11.5c15.9 29.6 30.1 64.2 42.8 102.7z m233.8-166.4V563H369.8v-35.1h284.9z m-115.8 162l-35.1 9.3c-9.3-37.3-20.9-73-35.1-107l36.2-11.5c12.6 31.8 24.1 68 34 109.2z m8.2-283.3l-33.5-21.4c25.8-35.1 44.5-73.6 56-116.4l37.9 8.2c-4.4 14.3-8.8 27.4-13.2 40.6h160.3v35.1h-87.3c12.1 20.9 21.4 40.1 28.5 58.7l-36.2 13.2c-9.9-24.7-20.9-48.9-32.9-71.9H579c-9.9 19.3-20.3 37.4-31.9 53.9z" fill="" /></svg>