<?xml version="1.0" standalone="no"?>
<!DOCTYPE svg PUBLIC "-//W3C//DTD SVG 1.1//EN" "http://www.w3.org/Graphics/SVG/1.1/DTD/svg11.dtd">
<svg class="icon" style="width: 1em;height: 1em;vertical-align: middle;fill: currentColor;overflow: hidden;" viewBox="0 0 1024 1024" version="1.1" xmlns="http://www.w3.org/2000/svg"><path d="M322.56 780.8h404.48V742.4h-104.96c20.48-35.84 40.96-74.24 58.88-112.64l-40.96-10.24c-17.92 43.52-40.96 84.48-66.56 122.88h-253.44v38.4zM343.04 512c17.92-20.48 30.72-40.96 43.52-64h12.8c10.24 17.92 20.48 35.84 25.6 56.32l38.4-10.24c-5.12-15.36-12.8-30.72-20.48-46.08h66.56l-10.24 10.24c5.12 2.56 10.24 5.12 17.92 10.24-46.08 51.2-133.12 94.72-215.04 115.2 10.24 10.24 17.92 20.48 25.6 33.28 33.28-10.24 64-23.04 94.72-38.4v28.16h189.44v-30.72c30.72 15.36 64 28.16 97.28 38.4 7.68-12.8 15.36-23.04 28.16-33.28-69.12-15.36-135.68-43.52-194.56-87.04 2.56-2.56 5.12-7.68 7.68-10.24l-15.36-7.68c7.68-7.68 15.36-17.92 23.04-28.16h35.84c15.36 17.92 25.6 35.84 35.84 56.32l40.96-10.24c-7.68-17.92-17.92-33.28-30.72-48.64h81.92v-33.28H588.8l15.36-30.72-40.96-10.24c-10.24 28.16-25.6 51.2-46.08 74.24v-33.28h-110.08c5.12-10.24 7.68-20.48 12.8-30.72l-40.96-10.24c-12.8 43.52-38.4 84.48-69.12 117.76 10.24 5.12 23.04 12.8 33.28 23.04z m266.24 58.88h-168.96c30.72-15.36 58.88-35.84 84.48-56.32 25.6 20.48 56.32 40.96 84.48 56.32zM716.8 268.8c0 20.48 17.92 38.4 38.4 38.4 7.68 0 12.8-2.56 20.48-5.12 12.8-5.12 20.48-17.92 20.48-33.28v-204.8C793.6 40.96 775.68 25.6 755.2 25.6S716.8 43.52 716.8 64v204.8zM422.4 192h207.36c17.92 0 35.84-17.92 35.84-38.4s-17.92-35.84-38.4-38.4h-207.36c-17.92 0-35.84 17.92-35.84 38.4 0 7.68 2.56 12.8 5.12 20.48 5.12 10.24 17.92 17.92 33.28 17.92zM407.04 627.2l-35.84 15.36c20.48 25.6 35.84 53.76 48.64 84.48l35.84-17.92c-12.8-28.16-28.16-56.32-48.64-81.92zM256 273.92c0 20.48 17.92 38.4 38.4 38.4 7.68 0 12.8-2.56 20.48-5.12 12.8-5.12 20.48-17.92 20.48-33.28V64c-2.56-17.92-17.92-33.28-38.4-33.28-17.92 0-33.28 15.36-35.84 33.28v209.92zM522.24 616.96l-33.28 12.8c15.36 28.16 28.16 58.88 38.4 89.6l38.4-15.36c-12.8-28.16-28.16-58.88-43.52-87.04zM1000.96 115.2H870.4c-20.48 0-38.4 17.92-38.4 38.4 0 7.68 2.56 12.8 5.12 20.48 5.12 12.8 17.92 20.48 33.28 20.48h76.8v716.8H76.8v-716.8h122.88c20.48 0 38.4-17.92 38.4-38.4s-17.92-35.84-38.4-38.4H0v870.4h1024v-870.4h-23.04z" /></svg>