<?xml version="1.0" standalone="no"?>
<!DOCTYPE svg PUBLIC "-//W3C//DTD SVG 1.1//EN" "http://www.w3.org/Graphics/SVG/1.1/DTD/svg11.dtd">
<svg class="icon" style="width: 1.0810546875em;height: 1em;vertical-align: middle;fill: currentColor;overflow: hidden;" viewBox="0 0 1107 1024" version="1.1" xmlns="http://www.w3.org/2000/svg"><path d="M193.72973 83.027027v96.864865a124.540541 124.540541 0 0 0 248.942702 5.867243L442.810811 179.891892V83.027027h221.405405v96.864865a124.540541 124.540541 0 0 0 118.673298 124.402162L788.756757 304.432432a124.540541 124.540541 0 0 0 124.402162-118.673297L913.297297 179.891892V83.027027h27.675676a166.054054 166.054054 0 0 1 166.054054 166.054054v608.864865a166.054054 166.054054 0 0 1-166.054054 166.054054H166.054054a166.054054 166.054054 0 0 1-166.054054-166.054054V249.081081a166.054054 166.054054 0 0 1 166.054054-166.054054h27.675676z m506.409513 348.99027l-3.597838 3.376433-205.519567 205.464216-68.469622-68.469622a69.189189 69.189189 0 0 0-101.237621 94.235676l3.376432 3.597838 117.427892 117.427892c11.485405 11.485405 26.015135 18.099892 40.96 19.815784l5.645838 0.415135h4.621838l4.621837-0.304433c13.616432-1.383784 26.928432-6.752865 37.971027-16.19027l4.012973-3.736216 254.422487-254.394811a69.189189 69.189189 0 0 0-94.235676-101.237622zM788.756757 0A69.189189 69.189189 0 0 1 857.945946 69.189189v83.027027a69.189189 69.189189 0 1 1-138.378378 0v-83.027027A69.189189 69.189189 0 0 1 788.756757 0z m-470.486487 0A69.189189 69.189189 0 0 1 387.459459 69.189189v83.027027a69.189189 69.189189 0 1 1-138.378378 0v-83.027027A69.189189 69.189189 0 0 1 318.27027 0z" fill="#FFC117" /></svg>