<?xml version="1.0" standalone="no"?>
<!DOCTYPE svg PUBLIC "-//W3C//DTD SVG 1.1//EN" "http://www.w3.org/Graphics/SVG/1.1/DTD/svg11.dtd">
<svg class="icon" style="width: 1em;height: 1em;vertical-align: middle;fill: currentColor;overflow: hidden;" viewBox="0 0 1024 1024" version="1.1" xmlns="http://www.w3.org/2000/svg"><path d="M813.47 905.09H210.53a121.08 121.08 0 0 1-120.94-121V343.61a121.08 121.08 0 0 1 120.94-121h602.94a121.08 121.08 0 0 1 120.94 121v440.53a121.08 121.08 0 0 1-120.94 120.95zM210.53 298.6a45.06 45.06 0 0 0-45 45v440.54a45.06 45.06 0 0 0 45 45h602.94a45.06 45.06 0 0 0 45-45V343.61a45.06 45.06 0 0 0-45-45z" fill="#0095E0" /><path d="M154.06 278.06h723.02v571.19H154.06z" fill="#0095E0" /><path d="M317.08 298.6a38 38 0 0 1-38-38V156.88a38 38 0 0 1 75.94 0v103.75a38 38 0 0 1-37.94 37.97zM706.92 298.6a38 38 0 0 1-38-38V156.88a38 38 0 0 1 75.94 0v103.75a38 38 0 0 1-37.94 37.97z" fill="#0095E0" /><path d="M934.41 435.16H89.59V343.1A120.44 120.44 0 0 1 210 222.66h603a121.42 121.42 0 0 1 121.41 121.42z m-768.88-30.24h692.94V352.2a53.59 53.59 0 0 0-53.59-53.6H219.42a53.9 53.9 0 0 0-53.89 53.9z" fill="#4BC5EF" /><path d="M485.49 768.81A71.34 71.34 0 0 1 438 750.7l-1.16-1.08-72.33-70.39a38 38 0 0 1 53-54.42l67.4 65.59 120.64-159.8a38 38 0 1 1 60.6 45.76l-124 164.19a71.28 71.28 0 0 1-49.85 27.93c-2.24 0.22-4.53 0.33-6.81 0.33zM783 796a28.48 28.48 0 0 1-28.48-28.47v-91.47a28.48 28.48 0 0 1 57 0v91.47A28.48 28.48 0 0 1 783 796zM702.54 807.06h-9.1a28.48 28.48 0 0 1 0-57h9.1a28.48 28.48 0 1 1 0 57z" fill="#FFFFFF" /><path d="M130.02 286.02h749.73V423.1H130.02z" fill="#4BC5EF" /></svg>