<?xml version="1.0" standalone="no"?>
<!DOCTYPE svg PUBLIC "-//W3C//DTD SVG 1.1//EN" "http://www.w3.org/Graphics/SVG/1.1/DTD/svg11.dtd">
<svg class="icon" style="width: 1.00390625em;height: 1em;vertical-align: middle;fill: currentColor;overflow: hidden;" viewBox="0 0 1028 1024" version="1.1" xmlns="http://www.w3.org/2000/svg"><path d="M1024 196.267c0-46.934-38.4-89.6-89.6-89.6H810.667V72.533C810.667 29.867 780.8 0 742.4 0h-34.133c-38.4 0-72.534 29.867-72.534 72.533v34.134H388.267V72.533C388.267 29.867 358.4 0 315.733 0H281.6c-38.4 0-68.267 29.867-68.267 72.533v34.134H89.6c-51.2 0-89.6 38.4-89.6 89.6V268.8c0 8.533 4.267 21.333 8.533 29.867H0V934.4c0 51.2 38.4 89.6 89.6 89.6h849.067c46.933 0 89.6-38.4 89.6-89.6V298.667h-8.534c0-8.534 4.267-21.334 4.267-34.134v-68.266zM669.867 72.533C669.867 51.2 686.933 38.4 704 38.4h34.133c21.334 0 34.134 17.067 34.134 34.133v140.8c0 21.334-17.067 34.134-34.134 34.134H704c-21.333 0-34.133-17.067-34.133-34.134v-140.8z m-422.4 0c0-21.333 17.066-34.133 34.133-34.133h34.133c21.334 0 34.134 17.067 34.134 34.133v140.8c0 21.334-17.067 34.134-34.134 34.134H281.6c-17.067 0-34.133-17.067-34.133-34.134v-140.8zM34.133 196.267c0-29.867 25.6-51.2 51.2-51.2h128v68.266c0 38.4 29.867 72.534 72.534 72.534H320c38.4 0 72.533-29.867 72.533-72.534V140.8H640v72.533c0 38.4 29.867 72.534 72.533 72.534h34.134c34.133-4.267 64-34.134 64-72.534V140.8H934.4c29.867 0 51.2 25.6 51.2 51.2v72.533c0 29.867-25.6 51.2-51.2 51.2H89.6c-29.867 0-51.2-25.6-51.2-51.2v-68.266z m900.267 793.6H89.6c-29.867 0-51.2-25.6-51.2-51.2v-601.6c12.8 12.8 34.133 17.066 51.2 17.066h849.067c21.333 0 38.4-8.533 51.2-17.066v601.6c0 25.6-25.6 51.2-55.467 51.2z"  /><path d="M584.533 422.4h140.8v34.133h-140.8z m-213.333 0H512v34.133H371.2z m-213.333 0h140.8v34.133h-140.8zM371.2 601.6h42.667v34.133H371.2z m-213.333 0h140.8v34.133h-140.8zM371.2 776.533h89.6v34.134h-89.6z m-213.333 0h140.8v34.134h-140.8z m524.8 29.867l-123.734-98.133-21.333 29.866 153.6 115.2 187.733-260.266-29.866-21.334z"  /></svg>