<?xml version="1.0" standalone="no"?>
<!DOCTYPE svg PUBLIC "-//W3C//DTD SVG 1.1//EN" "http://www.w3.org/Graphics/SVG/1.1/DTD/svg11.dtd">
<svg class="icon" style="width: 1em;height: 1em;vertical-align: middle;fill: currentColor;overflow: hidden;" viewBox="0 0 1024 1024" version="1.1" xmlns="http://www.w3.org/2000/svg"><path d="M170.242 152.402c0 26.942-11.894 47.574-35.924 61.773v711.309c0 4.854-1.82 9.102-5.34 12.621-3.519 3.52-7.767 5.34-12.621 5.34H80.433c-4.854 0-9.102-1.82-12.621-5.34-3.52-3.52-5.34-7.767-5.34-12.621V214.175c-24.03-14.2-35.924-34.83-35.924-61.773 0-19.904 6.918-36.773 20.996-50.852C61.622 87.472 78.49 80.555 98.395 80.555s36.773 6.917 50.851 20.995c14.078 14.079 20.996 30.948 20.996 50.852z m827.21 36.044v428.776c0 9.345-2.306 16.505-6.918 21.602-4.733 5.098-12.015 10.195-22.21 15.535-80.706 43.448-149.64 65.172-207.409 65.172-22.816 0-45.996-4.127-69.42-12.38-23.422-8.252-43.69-17.233-60.923-26.942-17.234-9.709-38.837-18.69-64.93-26.943-25.971-8.252-52.671-12.379-80.1-12.379-71.967 0-158.863 27.307-260.687 82.042-6.432 3.398-12.5 5.097-18.568 5.097-9.71 0-18.205-3.52-25.244-10.68-7.039-7.039-10.68-15.656-10.68-25.243V274.978c0-11.893 5.826-22.33 17.355-30.947 7.889-5.219 22.695-13.229 44.419-24.152 88.352-44.904 167.238-67.477 236.658-67.477 40.05 0 77.55 5.46 112.382 16.262 34.831 10.923 75.852 27.307 123.062 49.395 14.2 7.039 30.705 10.68 49.395 10.68 20.267 0 42.234-3.884 66.021-11.772 23.787-7.889 44.419-16.627 61.774-26.336 17.355-9.71 33.86-18.569 49.395-26.336 15.534-7.888 25.729-11.772 30.583-11.772 9.71 0 18.204 3.52 25.244 10.68 7.281 7.039 10.8 15.413 10.8 25.243z" /></svg>