<?xml version="1.0" standalone="no"?>
<!DOCTYPE svg PUBLIC "-//W3C//DTD SVG 1.1//EN" "http://www.w3.org/Graphics/SVG/1.1/DTD/svg11.dtd">
<svg class="icon" style="width: 1em;height: 1em;vertical-align: middle;fill: currentColor;overflow: hidden;" viewBox="0 0 1024 1024" version="1.1" xmlns="http://www.w3.org/2000/svg"><path d="M517.825 8.101C239.533 8.101 13.926 233.708 13.926 512c0 278.286 225.607 503.899 503.9 503.899 278.286 0 503.898-225.613 503.898-503.899 0-278.292-225.612-503.899-503.899-503.899z m20.308 801.497c-10.364 9.5-22.451 14.685-37.143 14.685-14.686 0-26.78-5.19-37.143-14.685-10.363-10.364-14.686-22.457-14.686-37.15 0-14.68 4.317-26.784 14.686-36.274 10.37-10.364 22.457-14.686 37.143-14.686s27.642 4.322 38.005 14.686c9.501 9.49 14.686 21.595 14.686 36.275 0 15.554-5.179 27.647-15.548 37.149z m124.396-345.535c-8.633 10.363-31.964 32.826-69.975 66.514-19.003 16.405-31.958 31.959-40.597 47.512-11.232 19.003-16.416 39.73-16.416 63.055v19.876h-69.102v-19.876c0-28.504 5.185-53.553 15.548-75.148 12.094-25.917 40.604-58.744 87.254-100.21 13.818-13.817 24.187-24.186 29.366-31.095 17.278-21.595 25.911-44.058 25.911-68.245 0-34.55-10.358-61.33-29.366-80.333-19.865-20.732-48.38-30.228-84.655-30.228-43.19 0-75.148 13.818-95.88 42.328-19.009 24.187-28.51 57.013-28.51 99.34h-68.25c0-60.467 16.415-108.841 50.966-145.116 34.556-38.011 82.925-57.02 145.123-57.02 55.289 0 99.34 14.686 133.035 45.777 31.958 29.371 48.374 69.975 48.374 121.798 0 38.873-11.231 72.561-32.826 101.07z" /></svg>