<?xml version="1.0" standalone="no"?>
<!DOCTYPE svg PUBLIC "-//W3C//DTD SVG 1.1//EN" "http://www.w3.org/Graphics/SVG/1.1/DTD/svg11.dtd">
<svg class="icon" style="width: 1em;height: 1em;vertical-align: middle;fill: currentColor;overflow: hidden;" viewBox="0 0 1024 1024" version="1.1" xmlns="http://www.w3.org/2000/svg"><path d="M512 64c249.6 0 448 198.4 448 448S761.6 960 512 960 64 761.6 64 512 262.4 64 512 64m0-64C230.4 0 0 230.4 0 512s230.4 512 512 512 512-230.4 512-512S793.6 0 512 0z"  /><path d="M716.8 256l-128 230.4H704v64H544v44.8h153.6v64H544v121.6h-64V659.2H332.8v-64H480v-44.8H332.8v-64H448L320 256h64l128 230.4h12.8l128-230.4h64z"  /></svg>