<?xml version="1.0" standalone="no"?>
<!DOCTYPE svg PUBLIC "-//W3C//DTD SVG 1.1//EN" "http://www.w3.org/Graphics/SVG/1.1/DTD/svg11.dtd">
<svg class="icon" style="width: 1em;height: 1em;vertical-align: middle;fill: currentColor;overflow: hidden;" viewBox="0 0 1024 1024" version="1.1" xmlns="http://www.w3.org/2000/svg"><path d="M665.84 438.285a139.017 139.017 0 0 0-8.212-15.024c-2.805-4.607-5.81-9.014-9.015-13.42a149.433 149.433 0 0 0-16.025-18.63 182.485 182.485 0 0 0-40.062-29.446c-5.609-3.004-11.819-5.809-17.027-8.012l-3.405-1.202-3.005-1.002h-2.404a60.094 60.094 0 0 0-8.012-2.604 104.563 104.563 0 0 0-11.418-2.804l-6.41-2.204a82.93 82.93 0 0 0-12.82-1.602 98.153 98.153 0 0 0-15.224-1.803h-17.627a88.138 88.138 0 0 0-9.014 1.002 112.376 112.376 0 0 0-12.82 2.403A169.665 169.665 0 0 0 346.54 467.931v2.604l-1.201 4.808a130.203 130.203 0 0 0-2.404 16.425v18.43a168.063 168.063 0 0 0 34.053 102.159 175.074 175.074 0 0 0 15.825 18.228 196.707 196.707 0 0 0 18.629 16.226c4.407 3.205 9.014 6.21 13.42 9.014s9.616 5.408 14.824 8.012A170.667 170.667 0 0 0 665.84 438.285zM512 646.61a133.408 133.408 0 0 1-58.291-13.22c-3.806-2.003-7.812-4.007-11.618-6.41a108.37 108.37 0 0 1-10.617-7.011 167.061 167.061 0 0 1-14.823-12.82 148.833 148.833 0 0 1-12.82-14.623 133.609 133.609 0 0 1-26.642-80.125v-9.215a30.448 30.448 0 0 1 0-4.807c0-4.607 1.002-9.014 1.803-13.421l1.603-6.21a134.01 134.01 0 0 1 100.156-97.753 63.299 63.299 0 0 1 9.615-1.803H511.4a88.338 88.338 0 0 1 12.019 0 54.886 54.886 0 0 1 10.015 1.403h7.412l10.216 2.403 4.207 1.403 8.613 3.004c4.607 2.003 9.014 4.007 13.02 6.21a135.812 135.812 0 0 1 31.25 23.437 100.156 100.156 0 0 1 12.419 14.422c2.604 3.405 5.208 7.211 7.411 10.617s4.207 7.411 6.21 11.618A134.81 134.81 0 0 1 512.8 646.81z"  /><path d="M512 246.185a266.416 266.416 0 0 0-251.593 350.347 254.598 254.598 0 0 0 166.86 167.462 280.438 280.438 0 0 0 85.534 13.42 263.412 263.412 0 0 0 156.845-51.28 265.615 265.615 0 0 0-156.644-480.75z m-74.316 480.75a216.939 216.939 0 0 1-141.822-142.221 231.161 231.161 0 0 1 32.852-207.725 226.955 226.955 0 1 1 108.97 349.947zM512 246.186a266.416 266.416 0 0 0-251.593 350.347 254.598 254.598 0 0 0 166.86 167.462 280.438 280.438 0 0 0 85.534 13.42 263.412 263.412 0 0 0 156.845-51.28 265.615 265.615 0 0 0-156.644-480.75z m-74.316 480.75a216.939 216.939 0 0 1-141.822-142.221 231.161 231.161 0 0 1 32.852-207.725 226.955 226.955 0 1 1 108.97 349.947zM512 246.186a266.416 266.416 0 0 0-251.593 350.347 254.598 254.598 0 0 0 166.86 167.462 280.438 280.438 0 0 0 85.534 13.42 263.412 263.412 0 0 0 156.845-51.28 265.615 265.615 0 0 0-156.644-480.75z m-74.316 480.75a216.939 216.939 0 0 1-141.822-142.221 231.161 231.161 0 0 1 32.852-207.725 226.955 226.955 0 1 1 108.97 349.947z"  /><path d="M1024 625.778V398.022h-91.343a409.24 409.24 0 0 0-42.666-103.362l63.7-63.298L793.44 68.707l-64.3 64.902a433.077 433.077 0 0 0-103.362-42.667V0H398.022v90.942A421.86 421.86 0 0 0 294.86 133.61l-64.3-64.3L70.31 230.56l64.5 64.1a409.24 409.24 0 0 0-42.666 103.362H0v227.756h91.142a408.038 408.038 0 0 0 42.667 103.161l-64.1 64.1 160.25 161.452 64.3-64.5a417.252 417.252 0 0 0 103.162 42.666V1024h228.357v-91.343a413.646 413.646 0 0 0 103.161-42.666l64.5 63.499L953.69 793.24l-64.1-64.702a412.444 412.444 0 0 0 42.667-103.361z m-125.396-21.233a378.992 378.992 0 0 1-49.077 116.582l-8.012 13.02 58.491 59.092L793.04 899.205l-36.857-36.657-11.018-10.817-5.608-5.208H723.53l-4.007 4.206a390.81 390.81 0 0 1-117.383 48.075l-14.623 3.406v83.33H436.282v-82.93l-14.623-3.405a395.618 395.618 0 0 1-120.188-49.477l-13.02-8.013-58.492 58.291L123.793 793.24l58.492-58.691-8.013-13.421a380.595 380.595 0 0 1-49.677-120.188l-3.205-14.623H38.46V436.282h82.93l3.205-15.625a380.595 380.595 0 0 1 49.677-120.188l8.013-13.02-58.692-57.09L230.56 123.394l58.492 58.892 13.02-8.213a386.404 386.404 0 0 1 117.183-49.077h17.027V38.46h151.236v82.73l14.823 3.405a390.61 390.61 0 0 1 120.188 49.477l12.82 7.812 59.092-58.692 105.966 107.97-59.092 57.89 8.012 13.02a380.595 380.595 0 0 1 49.678 120.188l3.205 14.823h83.33v151.236h-86.936z"  /></svg>