<?xml version="1.0" standalone="no"?>
<!DOCTYPE svg PUBLIC "-//W3C//DTD SVG 1.1//EN" "http://www.w3.org/Graphics/SVG/1.1/DTD/svg11.dtd">
<svg class="icon" style="width: 1em;height: 1em;vertical-align: middle;fill: currentColor;overflow: hidden;" viewBox="0 0 1024 1024" version="1.1" xmlns="http://www.w3.org/2000/svg"><path d="M1017.962 386.996c-9.952-28.156-35.195-48.424-65.779-53.035l-254.862-37.259L586.517 69.996c-13.35-27.55-42.599-45.511-74.517-45.511-31.797 0-60.924 17.84-74.274 45.39L326.92 296.58 71.695 333.96c-30.583 4.49-55.705 24.758-65.657 53.035-9.83 28.642-2.549 59.59 19.297 80.95L212.476 651.81l-43.448 255.105c-5.34 30.22 7.646 60.075 33.982 78.036 13.835 9.345 30.098 14.321 47.21 14.321 13.835 0 27.428-3.277 39.686-9.709l221.973-117.965 222.943 118.33c26.822 13.835 61.046 11.893 86.654-4.977 25.971-17.719 38.836-47.695 33.617-77.915l-43.448-255.105 187.263-184.228c21.603-21.118 28.885-52.065 19.054-80.707z m-65.05 34.346l-199.4 196.001c-7.646 7.525-11.165 18.326-9.345 28.884l46.24 272.096c0.85 4.855-1.335 9.345-5.704 12.38-5.34 3.64-14.564 3.761-19.54 1.213L527.292 805.698c-9.588-5.097-21.117-4.976-30.826 0L259.322 931.794c-5.825 3.035-14.442 2.67-19.54-0.85-2.305-1.455-7.402-5.824-6.189-12.742l46.361-272.096c1.82-10.559-1.578-21.36-9.345-28.884l-199.4-195.88c-3.519-3.52-4.854-8.253-3.276-12.5 1.82-5.22 6.918-8.981 13.35-9.952L353.5 358.96c10.68-1.577 19.903-8.374 24.758-17.961l118.45-242.24c2.549-5.098 8.738-8.618 15.413-8.618 6.797 0 13.108 3.399 15.535 8.617L646.106 341c4.733 9.71 13.957 16.506 24.758 17.962l271.975 39.807c6.553 0.971 11.772 4.855 13.47 9.71 1.336 4.611 0.122 9.344-3.397 12.864z m0 0" /></svg>