<?xml version="1.0" standalone="no"?>
<!DOCTYPE svg PUBLIC "-//W3C//DTD SVG 1.1//EN" "http://www.w3.org/Graphics/SVG/1.1/DTD/svg11.dtd">
<svg class="icon" style="width: 1em;height: 1em;vertical-align: middle;fill: currentColor;overflow: hidden;" viewBox="0 0 1024 1024" version="1.1" xmlns="http://www.w3.org/2000/svg"><path d="M512 0a512 512 0 1 0 512 512A512 512 0 0 0 512 0z m0 938.667A426.667 426.667 0 1 1 938.667 512 426.667 426.667 0 0 1 512 938.667z"  /><path d="M746.667 469.333A42.667 42.667 0 0 0 704 512a192 192 0 0 1-384 0 42.667 42.667 0 0 0-85.333 0 277.333 277.333 0 0 0 554.666 0 42.667 42.667 0 0 0-42.666-42.667z m-117.334-91.306a50.347 50.347 0 1 0-50.346-50.347 50.347 50.347 0 0 0 50.346 50.347z m-234.666 0a50.347 50.347 0 1 0-50.347-50.347 50.347 50.347 0 0 0 50.347 50.347z"  /></svg>