<?xml version="1.0" standalone="no"?>
<!DOCTYPE svg PUBLIC "-//W3C//DTD SVG 1.1//EN" "http://www.w3.org/Graphics/SVG/1.1/DTD/svg11.dtd">
<svg class="icon" style="width: 1em;height: 1em;vertical-align: middle;fill: currentColor;overflow: hidden;" viewBox="0 0 1024 1024" version="1.1" xmlns="http://www.w3.org/2000/svg"><path d="M949.15 672.2v-4.006c0-7.767 4.854-14.32 11.529-18.326 6.796-4.005 11.408-11.408 11.408-19.782v-504.87c0-12.622-10.316-22.937-22.938-22.937H214.903c-8.374 0-15.777 4.611-19.782 11.408-4.005 6.796-10.437 11.53-18.326 11.53h-4.004c-15.414 0-26.579-16.02-19.783-29.856 11.166-23.059 34.71-38.958 62.017-38.958H949.27c37.986 0 68.813 30.827 68.813 68.813v504.749c0 27.185-15.899 50.85-38.958 62.016-13.957 6.797-29.977-4.369-29.977-19.782z"  /><path d="M206.408 986.772c-3.398 0-6.796-0.728-9.952-2.306-7.888-3.884-12.986-11.894-12.986-20.632V813.587H78.37c-38.593 0-69.905-31.433-69.905-69.905V264.055c0-38.593 31.312-69.905 69.905-69.905h731.94c38.594 0 69.905 31.433 69.905 69.905v479.627c0 38.593-31.311 69.905-69.905 69.905H432.871L220.608 981.796c-4.127 3.277-9.103 4.976-14.2 4.976zM78.37 239.904c-13.228 0-24.03 10.802-24.03 24.03v479.627c0 13.228 10.802 24.03 24.03 24.03h128.038c12.622 0 22.938 10.315 22.938 22.937V916.26L410.54 772.566c4.005-3.277 9.102-4.976 14.199-4.976h385.57c13.229 0 24.03-10.8 24.03-24.03V264.056c0-13.228-10.801-24.03-24.03-24.03H78.37z"  /></svg>