<?xml version="1.0" standalone="no"?>
<!DOCTYPE svg PUBLIC "-//W3C//DTD SVG 1.1//EN" "http://www.w3.org/Graphics/SVG/1.1/DTD/svg11.dtd">
<svg class="icon" style="width: 1em;height: 1em;vertical-align: middle;fill: currentColor;overflow: hidden;" viewBox="0 0 1024 1024" version="1.1" xmlns="http://www.w3.org/2000/svg"><path d="M736.028 376.832H303.9c-22.641 0-41.073 18.546-41.073 41.074 0 22.642 18.545 41.074 41.073 41.074h432.015c22.641 0 41.073-18.546 41.073-41.074 0.114-22.528-18.432-41.074-40.96-41.074zM297.074 642.958h432.014c22.642 0 41.074-18.546 41.074-41.074 0-22.641-18.546-41.073-41.074-41.073H297.074c-22.642 0-41.074 18.545-41.074 41.073s18.546 41.074 41.074 41.074z m432.128 101.604H297.074c-22.642 0-41.074 18.546-41.074 41.074 0 22.641 18.546 41.073 41.074 41.073h432.014c22.642 0 41.074-18.545 41.074-41.073 0.114-22.528-18.432-41.074-40.96-41.074z"  /><path d="M827.96 2.503H415.062v0.569c-13.425-2.048-27.079 1.934-37.433 11.378l-250.88 230.514c-10.922 10.012-15.7 24.348-13.54 38.343h-0.568v651.491c0 47.787 38.457 86.699 85.675 86.699H827.96c47.218 0 85.675-38.912 85.675-86.699V89.202c0-47.787-38.457-86.699-85.675-86.699zM151.098 279.097c-0.683-1.593-1.252-4.551 1.593-7.168L403.684 41.3c1.479-1.365 3.072-1.82 4.437-1.82 1.138 0 2.162 0.341 2.844 0.569 1.48 0.682 4.096 2.275 4.096 6.03v230.4c0 3.64-3.072 6.713-6.826 6.713h-250.88c-3.983 0.114-5.575-2.503-6.258-4.096z m713.387 655.701c0 20.366-16.384 36.978-36.523 36.978H198.315c-20.139 0-36.523-16.612-36.523-36.978V341.675c0-11.833 9.557-21.39 21.39-21.39h225.053c24.69 0 44.828-19.57 44.828-43.691V73.614c0-11.833 9.557-21.39 21.39-21.39h353.508c20.139 0 36.523 16.612 36.523 36.978v845.596z"  /></svg>