<?xml version="1.0" standalone="no"?>
<!DOCTYPE svg PUBLIC "-//W3C//DTD SVG 1.1//EN" "http://www.w3.org/Graphics/SVG/1.1/DTD/svg11.dtd">
<svg class="icon" style="width: 1em;height: 1em;vertical-align: middle;fill: currentColor;overflow: hidden;" viewBox="0 0 1024 1024" version="1.1" xmlns="http://www.w3.org/2000/svg"><path d="M905.21 206.9c-87.592-84.119-216.175-72.357-216.175-72.357-15.81 0.32-28.629 13.41-28.629 29.36v14.213c0 15.897 12.76 28.041 29.035 27.763 0 0 123.396-13.097 175.957 63.519 52.553 76.616 29.847 172.754 29.847 172.754-2.412 15.694 8.479 28.418 24.541 28.418h12.26c15.967 0 30.73-12.683 32.45-28.523 0.003 0 28.304-151.031-59.286-235.147z"  /><path d="M803.346 436.596h17.372c10.605 0 20.884-8.31 22.597-18.99 0 0 20.475-79.684-27.297-123.358-47.777-43.677-110.211-27.745-110.211-27.745-10.471 1.598-18.97 11.528-18.97 22.085v7.494c0 10.605 8.483 18.558 19.437 18.24 0 0 52.403-7.13 77.892 23.601 25.484 30.738 5.532 80.446 5.532 80.446-3.063 10.069 3.184 18.227 13.648 18.227zM395.21 515.18c-86.012 16.718-144.266 89.282-130.117 162.08 14.153 72.794 95.347 118.254 181.354 101.536 86.01-16.722 144.277-89.288 130.124-162.086-14.15-72.792-95.344-118.252-181.36-101.53z m-7.055 191.448c-26.47 12.34-55.552 6.008-64.953-14.154-9.402-20.169 4.434-46.518 30.905-58.86 26.472-12.347 55.555-6.007 64.96 14.154 9.39 20.169-4.434 46.519-30.912 58.86z m60.702-61.26c-14.595 0-26.432-12.023-26.432-26.854 0-14.83 11.835-26.858 26.432-26.858 14.615 0 26.453 12.03 26.453 26.858 0 14.833-11.84 26.855-26.453 26.855z"  /><path d="M715.68 485.13c0-8.087 76.927-80.879 0-126.177-76.93-45.292-217.655 23.571-213.438 16.176 60.525-105.731-25.966-139.112-70.062-139.112-105.133 0-379.945 234.182-379.945 382.497 0 148.316 183.496 268.555 409.844 268.555 226.353 0 408.097-120.24 408.097-268.555 0-125.297-154.496-125.297-154.496-133.384zM473.15 804.8c-144.601 20.324-272.714-40.593-286.132-136.056-13.417-95.47 92.936-189.337 237.545-209.661 144.625-20.324 272.72 40.59 286.144 136.06 13.421 95.465-92.932 189.33-237.557 209.657z"  /></svg>