<?xml version="1.0" standalone="no"?>
<!DOCTYPE svg PUBLIC "-//W3C//DTD SVG 1.1//EN" "http://www.w3.org/Graphics/SVG/1.1/DTD/svg11.dtd">
<svg class="icon" style="width: 1em;height: 1em;vertical-align: middle;fill: currentColor;overflow: hidden;" viewBox="0 0 1024 1024" version="1.1" xmlns="http://www.w3.org/2000/svg"><path d="M605.76 845.44l-22.24 28.8-35.2-3.2 19.2 30.4-14.4 33.44 33.6-9.6 25.44 24 3.2-36.8 30.4-19.04-32-12.8zM279.68 767.2l-22.4 28.8-35.04-3.2 19.2 30.4-14.4 33.44 33.44-9.6 25.6 24 3.2-36.8 30.4-19.04-32-12.8zM791.2 784.8l-8-35.2-22.24 28.8-35.2-3.2 19.2 30.4-14.4 33.44 33.6-9.6 25.44 24 3.2-36.64 30.4-19.2zM164.64 602.72l-22.4 28.8-35.2-3.2 19.2 30.24-14.4 33.6 32-9.6 25.6 24 3.2-36.8 30.4-19.04-32-12.8z" fill="#128B4E" /><path d="M511.52 32.64c263.68 0 479.52 215.52 479.52 479.04S775.2 990.72 511.52 990.72C247.68 990.72 32 775.04 32 511.68 32 248.16 247.68 32.64 511.52 32.64m0-32C228.64 0.64 0 228.96 0 511.68s228.64 511.04 511.52 511.04 511.52-228.32 511.52-511.04S794.4 0.64 511.52 0.64z" fill="#128B4E" /><path d="M776.8 382.4c-3.2 0-8-1.6-9.6-6.4-51.2-92.64-150.24-148.48-255.68-148.48-64 0-124.64 20.8-175.84 59.04-4.8 3.2-11.2 3.2-16-1.6-3.2-4.8-3.2-11.2 1.6-16 54.4-41.44 121.44-63.84 190.24-63.84 113.44 0 219.04 60.64 274.88 159.68 3.2 4.8 1.6 12.8-4.8 16-1.6 1.6-3.2 1.6-4.8 1.6zM337.12 488.8c13.6 9.92 25.6 17.92 36 24-8.8 19.68-15.84 34.72-20.96 44.8-5.12 10.24-12.96 16.8-23.36 20s-23.52 2.88-39.2-0.64l-111.68-25.76c-36.64-8.48-50.56-31.84-41.76-70.24l25.44-110.08 38.08 8.8-5.76 24.96 124.48 28.64 12.48-54.24-169.6-39.04 8.16-35.2 207.84 47.84-28.8 124.64-162.88-37.44-10.72 46.24c-4 17.28 2.08 27.84 18.4 31.52l96 22.08c8 1.76 14.72 2.08 20.16 0.8 5.44-1.28 9.6-5.12 12.32-11.2 2.72-5.92 7.84-19.52 15.36-40.48zM396.48 467.68l104 24 4.8-20.8 12 2.72c-4-14.08-8.96-29.12-15.2-45.44l24.16-6.4-99.2-19.52c0-11.2-0.16-23.04-0.8-35.68 92.8 20.16 167.04 34.4 222.88 43.2l3.68 35.52-118.24-21.76c7.2 17.12 12.64 31.52 16.64 43.04l-30.08 8 20.48 4.64-4.8 20.8 105.28 24.16-7.52 32.64-83.52-19.2c18.88 31.04 44.8 57.6 77.44 79.84-9.44 6.72-19.52 15.04-30.24 25.28-33.6-28.8-57.92-59.68-72.96-92.64l-19.68 85.28-36.32-8.32 19.68-85.12c-28.48 22.88-63.36 40.64-104.64 53.12-4.16-11.68-9.44-23.68-15.84-36.16 37.44-6.56 71.2-20 101.28-40l-80.64-18.56 7.36-32.64z m53.6-57.12c9.12 15.52 17.76 31.52 26.08 48.16l-32.16 13.76c-7.04-16.48-14.88-32.8-23.52-49.28l29.6-12.64z m163.52 30.88l23.84 24.96c-16 12.48-33.6 24.96-52.48 37.12l-20-26.24c17.44-11.36 33.6-23.36 48.64-35.84zM700.96 500.96c5.12 1.12 11.36 2.24 18.88 3.68 6.88-7.52 14.08-15.52 21.92-24.32l18.72 15.2 5.44-23.52 58.72 13.6c3.2-13.28 6.24-26.72 9.44-40.32l33.12 7.68-9.92 40.16 59.84 13.76-39.2 169.6c-2.88 12.48-7.2 21.44-13.12 27.04-5.92 5.44-13.92 7.84-24 6.72-10.08-0.96-24.96-3.68-44.64-8.16 0.64-10.56 0.8-22.88 0.48-37.28 11.2 3.36 20.8 5.92 28.8 7.68 7.04 1.6 12.16 1.6 15.36-0.16 3.04-1.76 5.28-5.6 6.56-11.2l6.08-26.56-19.52 8.32c-4.16-15.84-8.96-31.84-14.08-48-11.04 16.64-24.16 29.44-39.2 38.56-3.84-5.28-8.48-11.04-13.92-17.44l-17.44 75.52-32.48-7.52 40.32-174.88a1133.232 1133.232 0 0 1-58.56 58.88c11.36 1.76 23.2 3.2 35.52 4.32-3.84 11.36-7.2 21.28-9.92 29.92-30.08-3.36-53.12-4.64-68.96-4l-3.68-29.76c10.56-6.56 25.28-19.36 44.16-38.4-12.48-1.76-22.56-2.88-30.72-3.36l-3.04-31.36c14.88-10.72 36.32-35.36 64.32-74.24l28.48 19.84a877.024 877.024 0 0 1-53.76 60z m-66.56 114.88c25.76 2.72 55.68 5.28 89.76 8-3.84 12.64-6.72 23.84-8.64 33.76-23.2-1.76-50.88-3.36-82.88-4.8l1.76-36.96z m136.64-18.08c21.44-15.52 36.8-42.24 45.76-80l-25.92-5.92-19.84 85.92z m87.84 13.76l18.4-79.84-27.84-6.4c-2.88 10.72-6.08 20.8-9.6 30.08l19.04 56.16z" fill="#128B4E" /><path d="M595.04 724c2.24 3.52 2.88 7.84 2.08 11.84-0.96 4-3.36 7.52-6.88 9.76l-136.96 86.56v0.16l-26.56 16.8-52.96-83.84a15.712 15.712 0 0 1 4.8-21.6 15.712 15.712 0 0 1 21.6 4.8l36.16 57.28 137.12-86.56a15.712 15.712 0 0 1 21.6 4.8z" fill="#128B4E" /></svg>